<?xml version="1.0"?>
<svg width="32" height="32" xmlns="http://www.w3.org/2000/svg" xmlns:svg="http://www.w3.org/2000/svg" xmlns:xlink="http://www.w3.org/1999/xlink" version="1.1" xml:space="preserve">
 <g class="layer">
  <title>Layer 1</title>
  <path d="m27,31.36c-1.3,0 -2.36,-1.06 -2.36,-2.36l0,-8c0,-1.3 1.06,-2.36 2.36,-2.36s2.36,1.06 2.36,2.36l0,8c0,1.3 -1.06,2.36 -2.36,2.36zm0,-12c-0.9,0 -1.64,0.73 -1.64,1.64l0,8c0,0.9 0.73,1.64 1.64,1.64s1.64,-0.73 1.64,-1.64l0,-8c0,-0.9 -0.74,-1.64 -1.64,-1.64zm-22,12c-1.3,0 -2.36,-1.06 -2.36,-2.36l0,-8c0,-1.3 1.06,-2.36 2.36,-2.36s2.36,1.06 2.36,2.36l0,8c0,1.3 -1.06,2.36 -2.36,2.36zm0,-12c-0.9,0 -1.64,0.73 -1.64,1.64l0,8c0,0.9 0.74,1.64 1.64,1.64s1.64,-0.74 1.64,-1.64l0,-8c0,-0.9 -0.74,-1.64 -1.64,-1.64zm26.36,5.64l-0.72,0l0,-9c0,-8.07 -6.57,-14.64 -14.64,-14.64c-8.07,0 -14.64,6.57 -14.64,14.64l0,9l-0.72,0l0,-9c0,-8.47 6.89,-15.36 15.36,-15.36s15.36,6.89 15.36,15.36l0,9z" id="headphones_1_"/>
  <rect fill="none" height="32" id="_Transparent_Rectangle" transform="matrix(1 0 0 1 0 0)" width="32" x="0" y="0.06"/>
  <use fill="#aad4ff" id="svg_3" transform="matrix(0.020926 0 0 0.020926 -2.2603 -9.44507)" x="478.85" xlink:href="#svg_2" y="1220.06"/>
 </g>
 <defs>
  <symbol enable-background="new 0 0 72 72" height="800px" id="svg_2" version="1.1" viewBox="0 0 72 72" width="800px" xml:space="preserve" xmlns="http://www.w3.org/2000/svg" xmlns:xlink="http://www.w3.org/1999/xlink">
   <g>
    <path d="m68.19,19.71l-8.02,-11.68c-1.54,-2.27 -4.94,-3.97 -7.9,-3.97l-32.55,0c-2.96,0 -6.36,1.71 -7.89,3.96l-8.05,11.63c-1.71,2.52 -1.62,6.4 0.21,8.84l28,37.33c1.02,1.35 2.48,2.12 4.01,2.12c1.53,0 2.99,-0.77 3.99,-2.11l28.01,-37.33c1.84,-2.46 1.93,-6.24 0.19,-8.79zm-15.92,-11.65c0.09,0 0.18,0.01 0.27,0.02l-0.78,0.71c-0.41,0.38 -0.44,1.01 -0.07,1.42c0.2,0.21 0.47,0.32 0.74,0.32c0.24,0 0.48,-0.08 0.68,-0.26l1.72,-1.57c0.86,0.41 1.63,0.98 2.04,1.59l8.02,11.68c0.22,0.31 0.36,0.69 0.45,1.09l-26.24,0l8.34,-7.61c0.4,-0.37 0.43,-1 0.06,-1.41c-0.37,-0.41 -1.01,-0.44 -1.41,-0.07l-9.83,8.97c-0.04,0.04 -0.06,0.08 -0.09,0.12l-1,0c-0.03,-0.04 -0.05,-0.08 -0.08,-0.12l-16.21,-14.79c0.29,-0.05 0.57,-0.09 0.84,-0.09l32.55,0zm-37.14,2.22c0.34,-0.5 0.94,-0.98 1.63,-1.36l15.49,14.14l-12.02,0c0,0 0,0 0,0l-13.49,0c-0.03,0 -0.07,0.02 -0.1,0.02c0.08,-0.43 0.22,-0.84 0.44,-1.17l8.05,-11.63zm-7.94,15.81c-0.22,-0.29 -0.37,-0.65 -0.48,-1.04c0.01,0 0.02,0.01 0.03,0.01l12.78,0l0.95,2.38c0.16,0.39 0.54,0.63 0.94,0.63c0.12,0 0.24,-0.02 0.36,-0.07c0.51,-0.2 0.77,-0.78 0.57,-1.29l-0.66,-1.65l28.47,0l-14.16,36.53l-10.98,-28.06c-0.2,-0.51 -0.78,-0.76 -1.3,-0.56c-0.51,0.2 -0.76,0.78 -0.56,1.29l10.71,27.38l-26.67,-35.55zm30.9,35.61l14.2,-36.64l12.99,0c-0.1,0.39 -0.26,0.74 -0.48,1.04l-26.71,35.6z"/>
    <path d="m49.33,13.37c0.24,0 0.48,-0.09 0.67,-0.27l0.7,-0.63c0.4,-0.38 0.43,-1.01 0.06,-1.42c-0.37,-0.4 -1,-0.43 -1.41,-0.06l-0.69,0.64c-0.41,0.37 -0.44,1 -0.07,1.41c0.2,0.22 0.47,0.33 0.74,0.33z"/>
    <path d="m23.66,30.09l-0.35,-0.9c-0.2,-0.51 -0.78,-0.76 -1.3,-0.56c-0.51,0.2 -0.76,0.78 -0.56,1.29l0.35,0.9c0.15,0.39 0.53,0.63 0.93,0.63c0.12,0 0.24,-0.02 0.36,-0.07c0.52,-0.2 0.77,-0.78 0.57,-1.29z"/>
   </g>
  </symbol>
 </defs>
</svg>